<svg xmlns="http://www.w3.org/2000/svg" viewBox="0 0 495.56 575.13"><defs><style>.a{fill:#fff;}.b{fill:#ff5757;}.c{fill:#849aab;}.d{fill:#013;}.e{fill:none;stroke:#013;stroke-linejoin:round;stroke-width:41px;}</style></defs><path class="a" d="M210.07,179.56s2.06-8,5.94-11.56c5.55-5.1,27.56-5.38,27.56-5.38s22,.28,27.56,5.38c3.88,3.56,5.94,11.56,5.94,11.56s19.5.32,38.25-8.94c5.76-2.84,3.11-10.13-3.13-9.74-26.12,1.62-49.75-8.5-68.62-8.5s-42.5,10.12-68.63,8.5c-6.23-.39-8.88,6.9-3.12,9.74C190.57,179.88,210.07,179.56,210.07,179.56Z"/><path class="a" d="M270.32,121.38s29.92,2.91,75.75,28.08a44,44,0,0,1,12.25-8.34c-26.75,41.67,19.5,104,19.5,144.88,0,21.26-13.26,53.09-51.26,70l9,35.22c77-44.36,70.58-55.76,74.53-85.11,12.25,47.5,2.3,52.45-69,106.85l1.15,4.49c55.67-35.84,82.34-52.84,82.34-92.58,0-58.26-56.5-121.5-45.67-184.09,0,0-46.33-24.5-110-45.67A88.76,88.76,0,0,0,270.32,121.38Z"/><path class="a" d="M390.43,415.61c4.57,6.89,19.57,26,47.47,29.68,0,0-51.42,9-67.82-14-1.1.82-2.21,1.64-3.34,2.46,0,0,8.23,18.38,15.58,21.75,4,1.84,66.62-1.29,66.62-1.29s-1.25-50.87-6.25-58.37c-3.11-4.68-9.78-11.35-14.35-15.71C419.43,390.3,407.2,402,390.43,415.61Z"/><path class="a" d="M378.57,90.12a3.49,3.49,0,0,0,3.25-1.2c1.37-1.63,13.52-23.52,13.75-24.8C398.32,49,376.69,40,367.65,46c-1.24.84-15.72,18.63-16.72,20s-.49,4-.49,4C363.71,58.16,387.24,74.71,378.57,90.12Z"/><path class="a" d="M49.24,445.29c27.89-3.67,42.9-22.79,47.46-29.68-16.76-13.58-29-25.31-37.9-35.44-4.57,4.36-11.24,11-14.36,15.71-5,7.5-6.25,58.37-6.25,58.37s62.63,3.13,66.63,1.29c7.35-3.37,15.58-21.75,15.58-21.75-1.13-.82-2.24-1.64-3.34-2.46C100.66,454.25,49.24,445.29,49.24,445.29Z"/><path class="a" d="M136.69,70s.52-2.66-.48-4-15.48-19.13-16.72-20c-9-6.08-30.67,3-27.92,18.08.23,1.28,12.37,23.17,13.75,24.8a3.48,3.48,0,0,0,3.25,1.2C99.9,74.71,123.43,58.16,136.69,70Z"/><path class="a" d="M261.44,178.5c-2.7-3.17-8.12-6.5-17.87-6.5s-15.18,3.33-17.88,6.5c-8.62,10.12-62.12,253.63-62.12,282.29s80,81.84,80,81.84,80-53.17,80-81.84S270.07,188.62,261.44,178.5Z"/><path class="a" d="M109.32,286c0-40.88,46.25-103.21,19.5-144.88a44.2,44.2,0,0,1,12.25,8.34c45.83-25.17,75.75-28.08,75.75-28.08a88.53,88.53,0,0,0,1.37-26.26c-63.62,21.17-109.95,45.67-109.95,45.67,10.83,62.59-45.67,125.83-45.67,184.09,0,39.74,26.67,56.74,82.34,92.58l1.15-4.49c-71.29-54.4-81.24-59.35-69-106.85,4,29.35-2.5,40.75,74.53,85.11l9-35.22C122.57,339.09,109.32,307.26,109.32,286Z"/><path class="a" d="M243.57,54.29c20.92,0,27.61,13.82,28.33,18.33,6.11-4.87-8-44.13-9.83-46.24-4.69-5.44-18.5-7.38-18.5-7.38s-13.81,1.94-18.5,7.38c-1.82,2.11-15.94,41.37-9.83,46.24C216,68.11,222.65,54.29,243.57,54.29Z"/><path class="b" d="M158.82,185.38c-4.38,38.87-16.08,62.74-16.08,100.58,0,29.83,16.15,44.84,23,49.85l34-133.35C167.07,198.46,158.82,185.38,158.82,185.38Z"/><path class="b" d="M243.57,117.38A20.75,20.75,0,0,1,255,121.26a184,184,0,0,1-.41-24.16c-3.34-3.09-11.05-3.77-11.05-3.77s-7.71.68-11,3.77a185.78,185.78,0,0,1-.41,24.16A20.75,20.75,0,0,1,243.57,117.38Z"/><path class="b" d="M229.51,141.44c1.43-.75,14.06-.82,14.06-.82s12.62.07,14.06.82c0,0-.92-4.61-1.78-11.88-2.57-2.45-7.62-5.5-12.28-5.5s-9.71,3-12.28,5.5C230.43,136.83,229.51,141.44,229.51,141.44Z"/><path class="b" d="M358.65,108.45c-4.29-10.16-14.88-13.9-19.26-15-3.13,3.53-6.06,6.85-7.64,8.67,8.48,3.48,16.93,7.2,23.94,10.8C355.69,112.88,356.92,111.05,358.65,108.45Z"/><path class="b" d="M243.57,67s-14.42.83-14.42,7.66c0,4.59,1.67,6.91,2.66,14.3a24.55,24.55,0,0,1,23.52,0c1-7.39,2.66-9.71,2.66-14.3C258,67.79,243.57,67,243.57,67Z"/><path class="b" d="M351.3,80.14a29,29,0,0,1,18,11.72C375.93,79.56,360.56,70.56,351.3,80.14Z"/><path class="b" d="M360.49,105.69c2.46-3.71,5.31-8.08,7.19-11.11-5.75-9.32-15.41-11.48-18.66-12-2,2.19-4.73,5.28-7.52,8.41C346.61,92.55,355.78,96.46,360.49,105.69Z"/><path class="b" d="M344.4,286c0-37.84-11.71-61.71-16.08-100.58,0,0-8.25,13.08-40.92,17.08l34,133.35C328.24,330.8,344.4,315.79,344.4,286Z"/><path class="b" d="M117.85,91.86a29,29,0,0,1,18-11.72C126.58,70.56,111.21,79.56,117.85,91.86Z"/><path class="b" d="M128.48,108.45c1.73,2.6,3,4.43,3,4.43,7-3.6,15.47-7.32,23.95-10.8-1.59-1.82-4.51-5.14-7.64-8.67C143.37,94.55,132.77,98.29,128.48,108.45Z"/><path class="b" d="M119.46,94.58c1.88,3,4.73,7.4,7.19,11.11,4.71-9.23,13.88-13.14,19-14.66-2.79-3.13-5.55-6.22-7.52-8.41C134.87,83.1,125.21,85.26,119.46,94.58Z"/><path class="c" d="M388.17,48.47s-9.52,13.61-11.31,14.82S369.07,54,350.44,70c18.25-2.42,27.54,8.27,27.05,23.46-.12,3.4,20.83-16.25,21.58-26.92S392.61,48.06,388.17,48.47Z"/><path class="c" d="M268.54,104s32.78,4,100,31.62c21.29,7.67,12.71,5.8,12.71,5.8s62.33,186.08,59,205.74S415.07,394,415.07,394c10.25,5.27,27.12,16.15,25.29,57.15,0,0-51.42,4.33-58,4.41s-22.63-22.29-22.63-22.29l-14.87,9.63s-20.57,64.74-101.25,99.75c4.67-53,63.33-46.47,63.33-98.34-3.22-56.57-42.08-232.41-44.71-244.79s-12-19-18.57-19.94c0,0,7.66-10.62,19.37,2S315.9,352.46,315.9,352.46l28.5-6.64s40.67-16.7,40.67-62.2-38.52-92.5-26.75-142.5c0,0-7.63,5.76-12.38,18.76,0,0-53.87-32-82.37-29Z"/><path class="c" d="M246.43,162.72c5.86-11.57,41.89,9.28,67.94-1.65,0,0,16.45-.95,2.45,13.55s-45.38,10.76-45.38,10.76S272.19,177,246.43,162.72Z"/><path class="c" d="M169.71,163s17.87,7.16,44.74,6.76l-3.63,14.72s-44.75-9.38-45-13.25S169.71,163,169.71,163Z"/><path class="c" d="M218.53,106.76s-57.29,16.2-89.71,34.36c4.75,84.37-74.25,155.84,11.76,203.1,0,0-15-41.1-4-107.76s15-81.67,15-81.67l70.33-30.73Z"/><path class="c" d="M109.38,150.45c7,43.34-22.81,104.93-32.31,155.67-7.37,39.36,31.42,77.95,76.5,97.34,0,0-13,45.33-42.67,60.33s-72.71-9.54-72.71-9.54l47.65-47.72S50.9,344.46,52.57,316.79,109.38,150.45,109.38,150.45Z"/><path class="c" d="M243.57,208.79c2.91,2.32,7.48,11.11,9.53,24.73,9.3,61.77,29.77,185.54,29.47,214.61,0,29-39,52.75-39,52.75s-25.5-6.25-36.75-37.25c10.66,17.19,36.8,18.75,36.8-11C243.62,432.25,243.57,208.79,243.57,208.79Z"/><path class="c" d="M264.09,30.8c-7.77-9.68-20.52-1.8-20.52,2.82v9.5s-19.42,2.17-29.84,25c0,0-.48,12,2.21,6.24,6.69-14.25,46.26-16.28,57.48,3.56C280.63,90.67,275,37.6,264.09,30.8Z"/><path class="c" d="M98.44,47.12s10.8,14.71,11.42,15.3,11.25-6.17,22.63,4.73a12.42,12.42,0,0,0,6.08,4.47s1.66-2.87-2.73-9.74-17.18-20-17.18-20S109.19,40,98.44,47.12Z"/><path class="d" d="M260.69,205.5c-2.74-13.58-7.71-20.07-17-20.12h-.1c-9.31.05-14.29,6.54-17,20.12s-42.37,217.88-42.37,242.13,32,44.5,32,44.5-20-18.16-20-44.25c0-18.87,24.34-177.57,35.5-233.67,2.73-13.75,9.33-17.54,12-17.58s9.22,3.83,11.95,17.58c11.15,56.1,35.5,214.8,35.5,233.67,0,26.09-20,44.25-20,44.25s32-20.25,32-44.5S263.44,219.12,260.69,205.5Z"/><path class="d" d="M463.24,384.62c-4.34-9.73-16.68-19.82-20.9-23.08,8-13.08,9.4-22.41,9.4-29.08,0-70.67-74.5-140.34-43.23-200.27-6.5-4.44-29.57-14.94-29.57-14.94l7.32-10.94s4.87.63,6.93-.69S410.94,78,414.32,71.38,407.82,15,360.15,29.29c-10,3-31.16,34.17-31.16,37.17S330.74,77,330.74,77c-3.2,4.46-10.34,15.37-13.07,19.56-15.45-5.9-28.1-10.14-28.1-10.14,13.37-9.13-5.92-67.67-14.13-75.26C265.43,1.88,245.69,0,243.57,0s-21.86,1.88-31.88,11.12c-8.2,7.59-27.5,66.13-14.12,75.26,0,0-12.66,4.24-28.1,10.14-2.73-4.19-9.87-15.1-13.07-19.56,0,0,1.75-7.5,1.75-10.5S137,32.3,127,29.29C79.32,15,69.44,64.75,72.82,71.38s19.06,32.93,21.12,34.24,6.94.69,6.94.69l7.31,10.94s-23.06,10.5-29.56,14.94C109.9,192.12,35.4,261.79,35.4,332.46c0,6.67,1.41,16,9.4,29.08-4.22,3.26-16.56,13.35-20.9,23.08-10.16,22.84-6,88.51-6,88.51,84.17,16.25,108.17,7.76,120.67-25.5-2.75,34,10.67,57.83,105,127.5,94.33-69.67,107.75-93.5,105-127.5,12.5,33.26,36.5,41.75,120.67,25.5C469.24,473.13,473.4,407.46,463.24,384.62ZM350.93,66c1-1.34,15.48-19.13,16.72-20,9-6.08,30.67,3,27.92,18.08-.23,1.28-12.38,23.17-13.75,24.8a3.49,3.49,0,0,1-3.25,1.2c8.67-15.41-14.86-32-28.13-20.12C350.44,70,349.93,67.34,350.93,66Zm18.35,25.85a29,29,0,0,0-18-11.72C360.56,70.56,375.93,79.56,369.28,91.86ZM349,82.62c3.25.48,12.91,2.64,18.66,12-1.88,3-4.73,7.4-7.19,11.11-4.71-9.23-13.88-13.14-19-14.66C344.29,87.9,347.05,84.81,349,82.62Zm-9.63,10.79c4.38,1.14,15,4.88,19.26,15-1.73,2.6-3,4.43-3,4.43-7-3.6-15.46-7.32-23.94-10.8C333.33,100.26,336.26,96.94,339.39,93.41Zm-114.32-67c4.69-5.44,18.5-7.38,18.5-7.38s13.81,1.94,18.5,7.38c1.82,2.11,15.94,41.37,9.83,46.24-.72-4.51-7.41-18.33-28.33-18.33S216,68.11,215.24,72.62C209.13,67.75,223.25,28.49,225.07,26.38Zm90.25,144.24c-18.75,9.26-38.25,8.94-38.25,8.94s-2.06-8-5.94-11.56c-5.55-5.1-27.56-5.38-27.56-5.38s-22,.28-27.56,5.38c-3.88,3.56-5.94,11.56-5.94,11.56s-19.5.32-38.25-8.94c-5.76-2.84-3.11-10.13,3.12-9.74,26.13,1.62,49.75-8.5,68.63-8.5s42.5,10.12,68.62,8.5C318.43,160.49,321.08,167.78,315.32,170.62Zm13,14.76c4.37,38.87,16.08,62.74,16.08,100.58,0,29.83-16.16,44.84-23,49.85l-34-133.35C320.07,198.46,328.32,185.38,328.32,185.38ZM199.74,202.46l-34,133.35c-6.84-5-23-20-23-49.85,0-37.84,11.7-61.71,16.08-100.58C158.82,185.38,167.07,198.46,199.74,202.46ZM232.52,97.1c3.34-3.09,11-3.77,11-3.77s7.71.68,11.05,3.77a184,184,0,0,0,.41,24.16,18.86,18.86,0,0,0-22.92,0A185.78,185.78,0,0,0,232.52,97.1Zm11,27c4.66,0,9.71,3,12.28,5.5.86,7.27,1.78,11.88,1.78,11.88-1.44-.75-14.06-.82-14.06-.82s-12.63.07-14.06.82c0,0,.92-4.61,1.78-11.88C233.86,127.11,238.91,124.06,243.57,124.06Zm11.76-35.14a24.55,24.55,0,0,0-23.52,0c-1-7.39-2.66-9.71-2.66-14.3,0-6.83,14.42-7.66,14.42-7.66S258,67.79,258,74.62C258,79.21,256.32,81.53,255.33,88.92Zm-99.94,13.16c-8.48,3.48-16.93,7.2-23.95,10.8,0,0-1.23-1.83-3-4.43,4.29-10.16,14.89-13.9,19.27-15C150.88,96.94,153.8,100.26,155.39,102.08Zm-9.75-11c-5.11,1.52-14.28,5.43-19,14.66-2.46-3.71-5.31-8.08-7.19-11.11,5.75-9.32,15.41-11.48,18.66-12C140.09,84.81,142.85,87.9,145.64,91Zm-27.79.83c-6.64-12.3,8.73-21.3,18-11.72A29,29,0,0,0,117.85,91.86Zm-12.53-2.94c-1.38-1.63-13.52-23.52-13.75-24.8C88.82,49,110.44,40,119.49,46c1.24.84,15.72,18.63,16.72,20s.48,4,.48,4c-13.26-11.84-36.79,4.71-28.12,20.12A3.48,3.48,0,0,1,105.32,88.92Zm-.5,366.62c-4,1.84-66.63-1.29-66.63-1.29s1.25-50.87,6.25-58.37c3.12-4.68,9.79-11.35,14.36-15.71C67.71,390.3,79.94,402,96.7,415.61c-4.56,6.89-19.57,26-47.46,29.68,0,0,51.42,9,67.82-14,1.1.82,2.21,1.64,3.34,2.46C120.4,433.79,112.17,452.17,104.82,455.54Zm46.78-64.31c-77-44.36-70.58-55.76-74.53-85.11-12.25,47.5-2.3,52.45,69,106.85l-1.15,4.49c-55.67-35.84-82.34-52.84-82.34-92.58,0-58.26,56.5-121.5,45.67-184.09,0,0,46.33-24.5,110-45.67a88.53,88.53,0,0,1-1.37,26.26s-29.92,2.91-75.75,28.08a44.2,44.2,0,0,0-12.25-8.34c26.75,41.67-19.5,104-19.5,144.88,0,21.26,13.25,53.09,51.26,70Zm92,151.4s-80-53.17-80-81.84,53.5-272.17,62.12-282.29c2.7-3.17,8.13-6.5,17.88-6.5s15.17,3.33,17.87,6.5c8.63,10.12,62.13,253.63,62.13,282.29S243.57,542.63,243.57,542.63Zm98.66-125.17L341.08,413c71.29-54.4,81.24-59.35,69-106.85-3.95,29.35,2.5,40.75-74.53,85.11l-9-35.22c38-16.92,51.26-48.75,51.26-70,0-40.88-46.25-103.21-19.5-144.88a44,44,0,0,0-12.25,8.34c-45.83-25.17-75.75-28.08-75.75-28.08a88.76,88.76,0,0,1-1.38-26.26c63.63,21.17,110,45.67,110,45.67-10.83,62.59,45.67,125.83,45.67,184.09C424.57,364.62,397.9,381.62,342.23,417.46Zm40.09,38.08c-7.35-3.37-15.58-21.75-15.58-21.75,1.13-.82,2.24-1.64,3.34-2.46,16.4,22.92,67.82,14,67.82,14-27.9-3.67-42.9-22.79-47.47-29.68,16.77-13.58,29-25.31,37.91-35.44,4.57,4.36,11.24,11,14.35,15.71,5,7.5,6.25,58.37,6.25,58.37S386.32,457.38,382.32,455.54Z"/><path d="M77.14,180.06,61,180.29Q50.51,233.42,40,286.49q-9.8.87-19.54,1.72,11.45-53.82,22.87-107.67l-16,.22,4.23-18.71H80.41Z"/><path d="M145.87,162.05q-3.36,29.47-6.73,58.95c-.06.55-.13,1.1-.19,1.65q-.88,7.75-1.78,15.49c0,.5-.11,1-.17,1.5q-2.26,19.7-4.54,39.39-9.78.63-19.57,1.36l6.24-46.68,5.72-.27-.3-.14q-2.52-1.31-5-2.64-7.17-3.82-14.24-7.72-4.37,29.35-8.72,58.71-9.81.78-19.6,1.61,5.81-34.87,11.58-69.78c.09-.57.19-1.14.28-1.71q1.33-8,2.66-16.06c.08-.51.17-1,.25-1.55q2.66-16,5.3-32.11h17.23q-3.06,20.83-6.14,41.67,6.91,4,13.93,7.93,3.3-24.79,6.58-49.6Z"/><path d="M212.7,162.05,212,178.7q-.36,9.27-.74,18.54-9,.07-17.93.17l1.11-18.63-14.64.09q-.89,11.65-1.76,23.31,8.82,4.78,17.79,9.56-.51,9.09-1,18.17-9.15-4.72-18.17-9.43l-3,39.53q8-.3,16-.54c0-.24,0-.48,0-.73.07-1.08.13-2.15.2-3.23,0-.14,0-.29,0-.44,0-.54.07-1.07.1-1.61s.07-1.17.11-1.76q.39-6.67.79-13.35l.09-1.47L209.36,246c-.12,3-.25,6-.37,9-.05,1.32-.1,2.63-.16,3.95l-.21,5.25-.45,11.4q-9.75.19-19.5.53-8.13.27-16.27.63-9.75.44-19.53,1l1.62-17q2.25-23.5,4.48-47l4.81-.12-4.57-2.41-4.38-2.42c0-.54.11-1.09.16-1.64l1.53-15.36.15-1.49,4.3,2.31q.65-6.84,1.3-13.69.79-8.47,1.6-17H212.7Z"/><path d="M326.66,277.88q-9.75-.54-19.52-1-8.11-.36-16.25-.65-9.74-.33-19.49-.55-.19-8.32-.41-16.65-.37-15.57-.76-31.12c-.05-2.34-.11-4.67-.17-7l-.27-11.25q9.24,4.92,18.6,9.92c0,.54.05,1.08.07,1.62q.33,7.56.67,15.12l.06,1.47,1,21.72q8,.24,16,.55l-3.75-62.29-2.13-35.73h17.24q1.41,18,2.84,36,2.48,31.41,5,62.82Z"/><path d="M365.71,162.05H383q1.31,8.88,2.62,17.77,3.19,21.66,6.41,43.32c.09.57.17,1.14.26,1.71q1.18,8,2.38,16.05c.08.52.15,1,.23,1.56q3,20.4,6.08,40.8-9.78-.83-19.57-1.61-3.11-23.59-6.2-47.18l5.73.29-.35-.17-5.78-3.2q-8.28-4.6-16.46-9.09,3.38,29.05,6.76,58.09-9.78-.72-19.55-1.36-3.3-33.67-6.59-67.35c-.05-.55-.11-1.11-.16-1.66l-1.5-15.49-.15-1.5q-.67-6.92-1.34-13.84-.82-8.56-1.66-17.14h31.6Zm6.53,50.13q-2.13-16.31-4.25-32.6l-14.65-.18,2.76,23.88Q364.13,207.68,372.24,212.18Z"/><path d="M452.7,182.56l5.82,27.9,16.54,79.27q-9.71-.81-19.46-1.67-9.23-47.52-18.43-95.07c-2.17,1.4-4.34,2.8-6.53,4.18h-.15l-8.18-4.69q8.51,47.1,17,94.15L419.8,284.9q-8.51-51.52-17-103.1c-.1-.58-.19-1.16-.29-1.74l-2.67-16.27c-.09-.58-.19-1.16-.28-1.74q13.28,7.26,26.8,14.82l.52.32.25-.32q10.78-7.19,21.3-14.66Z"/><path class="e" d="M80.29,209.94l-15.84.2q-8.51,45.15-17,90.27l-18.75,1.46Q38,256.12,47.25,210.35l-15.68.19q1.71-8,3.41-15.91H83Z"/><path class="e" d="M147.26,194.63q-2.76,25.07-5.53,50.11l-.15,1.41-1.47,13.16c0,.43-.09.85-.14,1.28l-3.72,33.47q-9.42.56-18.83,1.17,2.56-19.85,5.11-39.69l5.55-.22-.3-.12L122.87,253q-7.05-3.27-14-6.57-3.56,25-7.14,49.9-9.42.66-18.82,1.37,4.72-29.64,9.46-59.31c.07-.49.15-1,.23-1.46l2.16-13.64c.07-.44.14-.88.22-1.33l4.32-27.29h16.93q-2.5,17.72-5,35.43,6.84,3.39,13.75,6.73,2.7-21.07,5.39-42.16Z"/><path class="e" d="M212.91,194.63q-.28,7.08-.55,14.15-.3,7.89-.61,15.77-8.76.06-17.5.14.45-7.92.91-15.84l-14.34.08q-.72,9.91-1.45,19.82,8.67,4.06,17.44,8.12L196,252.32q-8.92-4-17.74-8-1.23,16.8-2.48,33.6,7.73-.25,15.44-.46c0-.2,0-.41,0-.62.05-.91.1-1.83.16-2.74,0-.13,0-.25,0-.38,0-.45.05-.91.08-1.37l.08-1.49.66-11.35c0-.42.05-.83.08-1.25L210.14,266q-.15,3.84-.31,7.7c0,1.11-.08,2.23-.13,3.35,0,1.49-.11,3-.17,4.47-.13,3.22-.25,6.45-.38,9.68q-9.39.17-18.79.45-7.83.24-15.66.54-9.4.36-18.81.82.66-7.22,1.33-14.41l3.69-40,4.67-.11-4.48-2-4.3-2.06c0-.46.09-.93.14-1.39q.62-6.53,1.25-13.06c0-.42.08-.84.13-1.27l4.23,2q.54-5.82,1.07-11.64.66-7.2,1.31-14.42h48Z"/><path class="e" d="M323.33,293.09q-9.4-.46-18.8-.83-7.83-.31-15.66-.55-9.39-.3-18.78-.47l-.33-14.16q-.3-13.21-.61-26.45-.07-3-.14-6-.12-4.77-.22-9.56,9,4.19,18,8.44l.06,1.37.54,12.85.06,1.25.78,18.46q7.71.21,15.43.47-1.54-26.47-3.07-52.95l-1.74-30.37h16.94l2.31,30.63q2,26.72,4.08,53.41Z"/><path class="e" d="M363.2,194.63h16.93l2.13,15.11,5.22,36.82.21,1.46q1,6.81,1.93,13.64c.07.44.13.88.19,1.32q2.47,17.34,4.94,34.68-9.39-.71-18.8-1.37-2.54-20-5.05-40.1l5.55.25-.34-.15-5.54-2.71q-7.94-3.92-15.81-7.73,2.76,24.69,5.51,49.38-9.39-.62-18.8-1.17-2.7-28.6-5.38-57.24c0-.47-.09-.94-.13-1.41l-1.23-13.16-.12-1.28q-.56-5.88-1.09-11.76-.69-7.29-1.36-14.58h31Zm5.32,42.61q-1.72-13.85-3.46-27.7l-14.34-.16,2.25,20.3Q360.71,233.41,368.52,237.24Z"/><path class="e" d="M447.89,212.07l4.69,23.72,13.33,67.38q-9.32-.69-18.66-1.42-7.46-40.39-14.9-80.81-3.24,1.78-6.51,3.55h-.15l-7.84-4q6.88,40,13.8,80l-18.77-1.47q-6.9-43.78-13.78-87.63l-.24-1.48-2.16-13.83c-.08-.49-.16-1-.23-1.48q12.82,6.18,25.85,12.6l.5.28.25-.27q10.8-6.12,21.4-12.47Z"/><path class="e" d="M77.14,180.06,61,180.29Q50.51,233.42,40,286.49q-9.8.87-19.54,1.72,11.45-53.82,22.87-107.67l-16,.22,4.23-18.71H80.41Z"/><path class="e" d="M145.87,162.05q-3.36,29.47-6.73,58.95c-.06.55-.13,1.1-.19,1.65q-.88,7.75-1.78,15.49c0,.5-.11,1-.17,1.5q-2.26,19.7-4.54,39.39-9.78.63-19.57,1.36l6.24-46.68,5.72-.27-.3-.14q-2.52-1.31-5-2.64-7.17-3.82-14.24-7.72-4.37,29.35-8.72,58.71-9.81.78-19.6,1.61,5.81-34.87,11.58-69.78c.09-.57.19-1.14.28-1.71q1.33-8,2.66-16.06c.08-.51.17-1,.25-1.55q2.66-16,5.3-32.11h17.23q-3.06,20.83-6.14,41.67,6.91,4,13.93,7.93,3.3-24.79,6.58-49.6Z"/><path class="e" d="M212.7,162.05,212,178.7q-.36,9.27-.74,18.54-9,.07-17.93.17l1.11-18.63-14.64.09q-.89,11.65-1.76,23.31,8.82,4.78,17.79,9.56-.51,9.09-1,18.17-9.15-4.72-18.17-9.43l-3,39.53q8-.3,16-.54c0-.24,0-.48,0-.73.07-1.08.13-2.15.2-3.23,0-.14,0-.29,0-.44,0-.54.07-1.07.1-1.61s.07-1.17.11-1.76q.39-6.67.79-13.35l.09-1.47L209.36,246c-.12,3-.25,6-.37,9-.05,1.32-.1,2.63-.16,3.95l-.21,5.25-.45,11.4q-9.75.19-19.5.53-8.13.27-16.27.63-9.75.44-19.53,1l1.62-17q2.25-23.5,4.48-47l4.81-.12-4.57-2.41-4.38-2.42c0-.54.11-1.09.16-1.64l1.53-15.36.15-1.49,4.3,2.31q.65-6.84,1.3-13.69.79-8.47,1.6-17H212.7Z"/><path class="e" d="M326.66,277.88q-9.75-.54-19.52-1-8.11-.36-16.25-.65-9.74-.33-19.49-.55-.19-8.32-.41-16.65-.37-15.57-.76-31.12c-.05-2.34-.11-4.67-.17-7l-.27-11.25q9.24,4.92,18.6,9.92c0,.54.05,1.08.07,1.62q.33,7.56.67,15.12l.06,1.47,1,21.72q8,.24,16,.55l-3.75-62.29-2.13-35.73h17.24q1.41,18,2.84,36,2.48,31.41,5,62.82Z"/><path class="e" d="M365.71,162.05H383q1.31,8.88,2.62,17.77,3.19,21.66,6.41,43.32c.09.57.17,1.14.26,1.71q1.18,8,2.38,16.05c.08.52.15,1,.23,1.56q3,20.4,6.08,40.8-9.78-.83-19.57-1.61-3.11-23.59-6.2-47.18l5.73.29-.35-.17-5.78-3.2q-8.28-4.6-16.46-9.09,3.38,29.05,6.76,58.09-9.78-.72-19.55-1.36-3.3-33.67-6.59-67.35c-.05-.55-.11-1.11-.16-1.66l-1.5-15.49-.15-1.5q-.67-6.92-1.34-13.84-.82-8.56-1.66-17.14h31.6Zm6.53,50.13q-2.13-16.31-4.25-32.6l-14.65-.18,2.76,23.88Q364.13,207.68,372.24,212.18Z"/><path class="e" d="M452.7,182.56l5.82,27.9,16.54,79.27q-9.71-.81-19.46-1.67-9.23-47.52-18.43-95.07c-2.17,1.4-4.34,2.8-6.53,4.18h-.15l-8.18-4.69q8.51,47.1,17,94.15L419.8,284.9q-8.51-51.52-17-103.1c-.1-.58-.19-1.16-.29-1.74l-2.67-16.27c-.09-.58-.19-1.16-.28-1.74q13.28,7.26,26.8,14.82l.52.32.25-.32q10.78-7.19,21.3-14.66Z"/><path class="a" d="M77.14,180.06,61,180.29Q50.51,233.42,40,286.49q-9.8.87-19.54,1.72,11.45-53.82,22.87-107.67l-16,.22,4.23-18.71H80.41Z"/><path class="a" d="M145.87,162.05q-3.36,29.47-6.73,58.95c-.06.55-.13,1.1-.19,1.65q-.88,7.75-1.78,15.49c0,.5-.11,1-.17,1.5q-2.26,19.7-4.54,39.39-9.78.63-19.57,1.36l6.24-46.68,5.72-.27-.3-.14q-2.52-1.31-5-2.64-7.17-3.82-14.24-7.72-4.37,29.35-8.72,58.71-9.81.78-19.6,1.61,5.81-34.87,11.58-69.78c.09-.57.19-1.14.28-1.71q1.33-8,2.66-16.06c.08-.51.17-1,.25-1.55q2.66-16,5.3-32.11h17.23q-3.06,20.83-6.14,41.67,6.91,4,13.93,7.93,3.3-24.79,6.58-49.6Z"/><path class="a" d="M212.7,162.05,212,178.7q-.36,9.27-.74,18.54-9,.07-17.93.17l1.11-18.63-14.64.09q-.89,11.65-1.76,23.31,8.82,4.78,17.79,9.56-.51,9.09-1,18.17-9.15-4.72-18.17-9.43l-3,39.53q8-.3,16-.54c0-.24,0-.48,0-.73.07-1.08.13-2.15.2-3.23,0-.14,0-.29,0-.44,0-.54.07-1.07.1-1.61s.07-1.17.11-1.76q.39-6.67.79-13.35l.09-1.47L209.36,246c-.12,3-.25,6-.37,9-.05,1.32-.1,2.63-.16,3.95l-.21,5.25-.45,11.4q-9.75.19-19.5.53-8.13.27-16.27.63-9.75.44-19.53,1l1.62-17q2.25-23.5,4.48-47l4.81-.12-4.57-2.41-4.38-2.42c0-.54.11-1.09.16-1.64l1.53-15.36.15-1.49,4.3,2.31q.65-6.84,1.3-13.69.79-8.47,1.6-17H212.7Z"/><path class="a" d="M326.66,277.88q-9.75-.54-19.52-1-8.11-.36-16.25-.65-9.74-.33-19.49-.55-.19-8.32-.41-16.65-.37-15.57-.76-31.12c-.05-2.34-.11-4.67-.17-7l-.27-11.25q9.24,4.92,18.6,9.92c0,.54.05,1.08.07,1.62q.33,7.56.67,15.12l.06,1.47,1,21.72q8,.24,16,.55l-3.75-62.29-2.13-35.73h17.24q1.41,18,2.84,36,2.48,31.41,5,62.82Z"/><path class="a" d="M365.71,162.05H383q1.31,8.88,2.62,17.77,3.19,21.66,6.41,43.32c.09.57.17,1.14.26,1.71q1.18,8,2.38,16.05c.08.52.15,1,.23,1.56q3,20.4,6.08,40.8-9.78-.83-19.57-1.61-3.11-23.59-6.2-47.18l5.73.29-.35-.17-5.78-3.2q-8.28-4.6-16.46-9.09,3.38,29.05,6.76,58.09-9.78-.72-19.55-1.36-3.3-33.67-6.59-67.35c-.05-.55-.11-1.11-.16-1.66l-1.5-15.49-.15-1.5q-.67-6.92-1.34-13.84-.82-8.56-1.66-17.14h31.6Zm6.53,50.13q-2.13-16.31-4.25-32.6l-14.65-.18,2.76,23.88Q364.13,207.68,372.24,212.18Z"/><path class="a" d="M452.7,182.56l5.82,27.9,16.54,79.27q-9.71-.81-19.46-1.67-9.23-47.52-18.43-95.07c-2.17,1.4-4.34,2.8-6.53,4.18h-.15l-8.18-4.69q8.51,47.1,17,94.15L419.8,284.9q-8.51-51.52-17-103.1c-.1-.58-.19-1.16-.29-1.74l-2.67-16.27c-.09-.58-.19-1.16-.28-1.74q13.28,7.26,26.8,14.82l.52.32.25-.32q10.78-7.19,21.3-14.66Z"/></svg>